<?xml version="1.0" encoding="utf-8"?>
<!-- Generator: Adobe Illustrator 19.0.0, SVG Export Plug-In . SVG Version: 6.00 Build 0)  -->
<svg version="1.1" id="Layer_1" xmlns="http://www.w3.org/2000/svg" xmlns:xlink="http://www.w3.org/1999/xlink" x="0px" y="0px"
	 viewBox="0 0 75.6 49.9" style="enable-background:new 0 0 75.6 49.9;" xml:space="preserve">
<style type="text/css">
	.st0{fill:#FFFFFF;}
</style>
<path id="XMLID_63_" class="st0" d="M182.1,25.6c-15,0-27.2,11.6-27.2,26h8.8c0-9.7,8.2-17.6,18.4-17.6s18.4,7.9,18.4,17.6h8.8
	C209.4,37.3,197.2,25.6,182.1,25.6z"/>
<path id="XMLID_68_" class="st0" d="M209.3-0.7c-3.4,0-6.5-0.4-9.2-1c-0.9,1.6-1.5,3.4-1.5,5.4c0,5.9,4.8,10.7,10.7,10.7
	S220,9.5,220,3.6c0-2-0.5-3.8-1.5-5.4C215.8-1.1,212.7-0.7,209.3-0.7z"/>
<path id="XMLID_60_" class="st0" d="M155-0.7c-3.4,0-6.5-0.4-9.2-1c-0.9,1.6-1.5,3.4-1.5,5.4c0,5.9,4.8,10.7,10.7,10.7
	s10.7-4.8,10.7-10.7c0-2-0.5-3.8-1.5-5.4C161.5-1.1,158.4-0.7,155-0.7z"/>
<g id="XMLID_27_">
	<g id="XMLID_62_">
		<circle id="XMLID_65_" class="st0" cx="10.7" cy="10.7" r="10.7"/>
		<circle id="XMLID_64_" class="st0" cx="65" cy="10.7" r="10.7"/>
	</g>
	<rect id="XMLID_58_" x="9.1" y="41.4" class="st0" width="57.4" height="8.5"/>
</g>
</svg>
