<?xml version="1.0" encoding="utf-8"?>
<!-- Generator: Adobe Illustrator 19.0.0, SVG Export Plug-In . SVG Version: 6.00 Build 0)  -->
<svg version="1.1" id="Layer_1" xmlns="http://www.w3.org/2000/svg" xmlns:xlink="http://www.w3.org/1999/xlink" x="0px" y="0px"
	 viewBox="-441 254.6 75.6 53.4" style="enable-background:new -441 254.6 75.6 53.4;" xml:space="preserve">
<style type="text/css">
	.st0{fill:#FFFFFF;}
</style>
<g>
	<path class="st0" d="M-403.2,282c-15,0-27.2,11.6-27.2,26h8.8c0-9.7,8.2-17.6,18.4-17.6s18.4,7.9,18.4,17.6h8.8
		C-375.9,293.6-388.1,282-403.2,282z"/>
	<path class="st0" d="M-366.8,254.5c-2.7,0.8-5.8,1.1-9.2,1.1s-6.5-0.4-9.2-1c-0.9,1.6-1.5,3.4-1.5,5.4c0,5.9,4.8,10.6,10.7,10.6
		s10.7-4.8,10.7-10.7C-365.3,257.9-365.8,256.1-366.8,254.5z"/>
	<path class="st0" d="M-419.6,259.9c0-2-0.5-3.8-1.5-5.4c-2.7,0.8-5.8,1.1-9.2,1.1c-3.4,0-6.6-0.3-9.2-1c-1,1.6-1.5,3.4-1.5,5.4
		c0,5.9,4.8,10.6,10.7,10.6C-424.4,270.6-419.6,265.8-419.6,259.9z"/>
</g>
</svg>
