<?xml version="1.0" encoding="utf-8"?>
<!-- Generator: Adobe Illustrator 19.0.0, SVG Export Plug-In . SVG Version: 6.00 Build 0)  -->
<svg version="1.1" id="Layer_1" xmlns="http://www.w3.org/2000/svg" xmlns:xlink="http://www.w3.org/1999/xlink" x="0px" y="0px"
	 viewBox="0 0 75.6 58.7" style="enable-background:new 0 0 75.6 58.7;" xml:space="preserve">
<style type="text/css">
	.st0{fill:#FFFFFF;}
</style>
<path id="XMLID_63_" class="st0" d="M182.1,30c-15,0-27.2,11.6-27.2,26h8.8c0-9.7,8.2-17.6,18.4-17.6s18.4,7.9,18.4,17.6h8.8
	C209.4,41.7,197.2,30,182.1,30z"/>
<path id="XMLID_68_" class="st0" d="M209.3,3.7c-3.4,0-6.5-0.4-9.2-1c-0.9,1.6-1.5,3.4-1.5,5.4c0,5.9,4.8,10.7,10.7,10.7
	S220,13.9,220,8c0-2-0.5-3.8-1.5-5.4C215.8,3.3,212.7,3.7,209.3,3.7z"/>
<path id="XMLID_60_" class="st0" d="M155,3.7c-3.4,0-6.5-0.4-9.2-1c-0.9,1.6-1.5,3.4-1.5,5.4c0,5.9,4.8,10.7,10.7,10.7
	s10.7-4.8,10.7-10.7c0-2-0.5-3.8-1.5-5.4C161.5,3.3,158.4,3.7,155,3.7z"/>
<g id="XMLID_27_">
	<g id="XMLID_62_">
		<circle id="XMLID_65_" class="st0" cx="149.7" cy="104.4" r="10.7"/>
		<circle id="XMLID_64_" class="st0" cx="204" cy="104.4" r="10.7"/>
	</g>
	<rect id="XMLID_58_" x="148.1" y="135.1" class="st0" width="57.4" height="8.5"/>
</g>
<g id="XMLID_54_">
	<path id="XMLID_70_" class="st0" d="M37.8,58.7c15,0,27.2-11.6,27.2-26h-8.8c0,9.7-8.2,17.6-18.4,17.6s-18.4-7.9-18.4-17.6h-8.8
		C10.6,47,22.8,58.7,37.8,58.7z"/>
	<path id="XMLID_67_" class="st0" d="M10.7,13c3.8,0,7.2,0.5,10,1.3c0.4-1.1,0.6-2.3,0.6-3.6C21.3,4.8,16.6,0,10.7,0
		C4.8,0,0,4.8,0,10.7c0,1.3,0.2,2.5,0.6,3.6C3.4,13.5,6.9,13,10.7,13z"/>
	<path id="XMLID_69_" class="st0" d="M65,13c3.8,0,7.2,0.5,10,1.3c0.4-1.1,0.6-2.3,0.6-3.6C75.6,4.8,70.9,0,65,0S54.3,4.8,54.3,10.7
		c0,1.3,0.2,2.5,0.6,3.6C57.7,13.5,61.2,13,65,13z"/>
</g>
</svg>
