<?xml version="1.0" encoding="utf-8"?>
<!-- Generator: Adobe Illustrator 19.0.0, SVG Export Plug-In . SVG Version: 6.00 Build 0)  -->
<svg version="1.1" id="_x32_" xmlns="http://www.w3.org/2000/svg" xmlns:xlink="http://www.w3.org/1999/xlink" x="0px" y="0px"
	 viewBox="0 0 76 59" style="enable-background:new 0 0 76 59;" xml:space="preserve">
<style type="text/css">
	.st0{fill:#6E3772;}
</style>
<g id="XMLID_45_">
	<path id="XMLID_48_" class="st0" d="M65.3,4.6c-3,0-5.8-0.3-8.2-0.7c-1.5,1.9-2.5,4.2-2.5,6.9c0,5.9,4.8,10.7,10.7,10.7
		c5.9,0,10.7-4.8,10.7-10.7c0-2.6-0.9-5-2.5-6.9C71.1,4.3,68.3,4.6,65.3,4.6z"/>
	<path id="XMLID_47_" class="st0" d="M10.7,4.6c-3,0-5.8-0.3-8.2-0.7C0.9,5.7,0,8.1,0,10.7c0,5.9,4.8,10.7,10.7,10.7
		c5.9,0,10.7-4.8,10.7-10.7c0-2.6-0.9-5-2.5-6.9C16.6,4.3,13.7,4.6,10.7,4.6z"/>
	<path id="XMLID_46_" class="st0" d="M22,50.2c3.2-5.3,9.2-8.9,16-8.9c6.9,0,12.8,3.6,16,8.9l9.8,0C60,40.1,49.9,32.9,38,32.9
		c-11.9,0-22,7.2-25.8,17.4L22,50.2z"/>
</g>
</svg>
