<?xml version="1.0" encoding="utf-8"?>
<!-- Generator: Adobe Illustrator 19.0.0, SVG Export Plug-In . SVG Version: 6.00 Build 0)  -->
<svg version="1.1" id="_x35_" xmlns="http://www.w3.org/2000/svg" xmlns:xlink="http://www.w3.org/1999/xlink" x="0px" y="0px"
	 viewBox="0 0 58 58" style="enable-background:new 0 0 58 58;" xml:space="preserve">
<style type="text/css">
	.st0{fill:#F7931E;}
</style>
<g id="XMLID_54_">
	<path id="XMLID_70_" class="st0" d="M29,45.3c7.6,0,13.8-5.9,13.8-13.2h-4.5c0,4.9-4.2,8.9-9.3,8.9s-9.3-4-9.3-8.9h-4.5
		C15.2,39.4,21.4,45.3,29,45.3z"/>
	<path id="XMLID_67_" class="st0" d="M15.2,23.2c1.9,0,3.7,0.2,5.1,0.6c0.2-0.6,0.3-1.2,0.3-1.8c0-3-2.4-5.4-5.4-5.4
		c-3,0-5.4,2.4-5.4,5.4c0,0.6,0.1,1.3,0.3,1.8C11.6,23.4,13.3,23.2,15.2,23.2z"/>
	<path id="XMLID_69_" class="st0" d="M42.8,23.2c1.9,0,3.7,0.2,5.1,0.6c0.2-0.6,0.3-1.2,0.3-1.8c0-3-2.4-5.4-5.4-5.4
		c-3,0-5.4,2.4-5.4,5.4c0,0.6,0.1,1.3,0.3,1.8C39.1,23.4,40.9,23.2,42.8,23.2z"/>
</g>
</svg>
