<?xml version="1.0" encoding="utf-8"?>
<!-- Generator: Adobe Illustrator 19.0.0, SVG Export Plug-In . SVG Version: 6.00 Build 0)  -->
<svg version="1.1" id="_x35__1_" xmlns="http://www.w3.org/2000/svg" xmlns:xlink="http://www.w3.org/1999/xlink" x="0px" y="0px"
	 viewBox="0 0 76 59" style="enable-background:new 0 0 76 59;" xml:space="preserve">
<style type="text/css">
	.st0{fill:#FFB471;}
</style>
<g id="XMLID_53_">
	<path id="XMLID_57_" class="st0" d="M38,57c15.1,0,27.4-11.7,27.4-26.2h-8.9c0,9.8-8.3,17.7-18.5,17.7s-18.5-7.9-18.5-17.7h-8.9
		C10.6,45.3,22.9,57,38,57z"/>
	<path id="XMLID_56_" class="st0" d="M10.7,13.1c3.8,0,7.3,0.5,10.1,1.3c0.4-1.1,0.6-2.3,0.6-3.6C21.4,4.8,16.6,0,10.7,0
		C4.8,0,0,4.8,0,10.7c0,1.3,0.2,2.5,0.6,3.6C3.5,13.5,6.9,13.1,10.7,13.1z"/>
	<path id="XMLID_55_" class="st0" d="M65.3,13.1c3.8,0,7.3,0.5,10.1,1.3c0.4-1.1,0.6-2.3,0.6-3.6C76,4.8,71.2,0,65.3,0
		S54.6,4.8,54.6,10.7c0,1.3,0.2,2.5,0.6,3.6C58,13.5,61.5,13.1,65.3,13.1z"/>
</g>
</svg>
