<?xml version="1.0" encoding="utf-8"?>
<!-- Generator: Adobe Illustrator 19.0.0, SVG Export Plug-In . SVG Version: 6.00 Build 0)  -->
<svg version="1.1" id="_x32_" xmlns="http://www.w3.org/2000/svg" xmlns:xlink="http://www.w3.org/1999/xlink" x="0px" y="0px"
	 viewBox="0 0 58 58" style="enable-background:new 0 0 58 58;" xml:space="preserve">
<style type="text/css">
	.st0{fill:#F7931E;}
</style>
<g id="XMLID_10_">
	<path id="XMLID_13_" class="st0" d="M42.8,18.9c-1.5,0-2.9-0.1-4.2-0.3c-0.8,0.9-1.2,2.1-1.2,3.5c0,3,2.4,5.4,5.4,5.4
		c3,0,5.4-2.4,5.4-5.4c0-1.3-0.5-2.5-1.2-3.5C45.7,18.7,44.3,18.9,42.8,18.9z"/>
	<path id="XMLID_12_" class="st0" d="M15.2,18.9c-1.5,0-2.9-0.1-4.2-0.3c-0.8,0.9-1.2,2.1-1.2,3.5c0,3,2.4,5.4,5.4,5.4
		c3,0,5.4-2.4,5.4-5.4c0-1.3-0.5-2.5-1.2-3.5C18.2,18.7,16.8,18.9,15.2,18.9z"/>
	<path id="XMLID_11_" class="st0" d="M20.9,41.9c1.6-2.7,4.6-4.5,8.1-4.5c3.5,0,6.5,1.8,8.1,4.5l4.9,0c-1.9-5.1-7-8.8-13-8.8
		c-6,0-11.1,3.7-13,8.8L20.9,41.9z"/>
</g>
</svg>
