<?xml version="1.0" encoding="utf-8"?>
<!-- Generator: Adobe Illustrator 19.0.0, SVG Export Plug-In . SVG Version: 6.00 Build 0)  -->
<svg version="1.1" id="_x34_" xmlns="http://www.w3.org/2000/svg" xmlns:xlink="http://www.w3.org/1999/xlink" x="0px" y="0px"
	 viewBox="0 0 58 58" style="enable-background:new 0 0 58 58;" xml:space="preserve">
<style type="text/css">
	.st0{fill:#F7931E;}
</style>
<g id="XMLID_23_">
	<path id="XMLID_26_" class="st0" d="M15.2,25.1c1.5,0,2.9,0.1,4.2,0.3c0.8-0.9,1.2-2.1,1.2-3.5c0-3-2.4-5.4-5.4-5.4
		c-3,0-5.4,2.4-5.4,5.4c0,1.3,0.5,2.5,1.2,3.5C12.3,25.2,13.7,25.1,15.2,25.1z"/>
	<path id="XMLID_25_" class="st0" d="M42.8,25.1c1.5,0,2.9,0.1,4.2,0.3c0.8-0.9,1.2-2.1,1.2-3.5c0-3-2.4-5.4-5.4-5.4
		c-3,0-5.4,2.4-5.4,5.4c0,1.3,0.5,2.5,1.2,3.5C39.8,25.2,41.2,25.1,42.8,25.1z"/>
	<path id="XMLID_24_" class="st0" d="M37.1,36.5C35.5,39.2,32.5,41,29,41c-3.5,0-6.5-1.8-8.1-4.5l-4.9,0c1.9,5.1,7,8.8,13,8.8
		c6,0,11.1-3.7,13-8.8L37.1,36.5z"/>
</g>
</svg>
