<?xml version="1.0" encoding="utf-8"?>
<!-- Generator: Adobe Illustrator 19.0.0, SVG Export Plug-In . SVG Version: 6.00 Build 0)  -->
<svg version="1.1" id="_x31_" xmlns="http://www.w3.org/2000/svg" xmlns:xlink="http://www.w3.org/1999/xlink" x="0px" y="0px"
	 viewBox="0 0 76 59" style="enable-background:new 0 0 76 59;" xml:space="preserve">
<style type="text/css">
	.st0{fill:#3D1468;}
</style>
<g id="XMLID_41_">
	<path id="XMLID_44_" class="st0" d="M38,32.8c-15.1,0-27.4,11.7-27.4,26.2h8.9c0-9.8,8.3-17.7,18.5-17.7S56.5,49.2,56.5,59h8.9
		C65.4,44.6,53.1,32.8,38,32.8z"/>
	<path id="XMLID_43_" class="st0" d="M65.3,10.3c-3.8,0-7.4-0.3-10.6-0.8c0,0.4-0.1,0.8-0.1,1.2c0,5.9,4.8,10.7,10.7,10.7
		S76,16.6,76,10.7c0-0.4,0-0.8-0.1-1.2C72.7,10,69.1,10.3,65.3,10.3z"/>
	<path id="XMLID_42_" class="st0" d="M10.7,10.3c-3.8,0-7.4-0.3-10.6-0.8C0,9.9,0,10.3,0,10.7c0,5.9,4.8,10.7,10.7,10.7
		s10.7-4.8,10.7-10.7c0-0.4,0-0.8-0.1-1.2C18.1,10,14.5,10.3,10.7,10.3z"/>
</g>
</svg>
