<?xml version="1.0" encoding="utf-8"?>
<!-- Generator: Adobe Illustrator 19.0.0, SVG Export Plug-In . SVG Version: 6.00 Build 0)  -->
<svg version="1.1" id="_x34__1_" xmlns="http://www.w3.org/2000/svg" xmlns:xlink="http://www.w3.org/1999/xlink" x="0px" y="0px"
	 viewBox="0 0 76 59" style="enable-background:new 0 0 76 59;" xml:space="preserve">
<style type="text/css">
	.st0{fill:#D38063;}
</style>
<g id="XMLID_49_">
	<path id="XMLID_52_" class="st0" d="M10.7,16.9c3,0,5.8,0.3,8.2,0.7c1.5-1.9,2.5-4.2,2.5-6.9C21.4,4.8,16.6,0,10.7,0
		C4.8,0,0,4.8,0,10.7c0,2.6,0.9,5,2.5,6.9C4.9,17.2,7.7,16.9,10.7,16.9z"/>
	<path id="XMLID_51_" class="st0" d="M65.3,16.9c3,0,5.8,0.3,8.2,0.7c1.5-1.9,2.5-4.2,2.5-6.9C76,4.8,71.2,0,65.3,0
		c-5.9,0-10.7,4.8-10.7,10.7c0,2.6,0.9,5,2.5,6.9C59.4,17.2,62.3,16.9,65.3,16.9z"/>
	<path id="XMLID_50_" class="st0" d="M54,39.6c-3.2,5.3-9.2,8.9-16,8.9c-6.9,0-12.8-3.6-16-8.9l-9.8,0C16,49.7,26.1,57,38,57
		c11.9,0,22-7.2,25.8-17.4L54,39.6z"/>
</g>
</svg>
