<?xml version="1.0" encoding="utf-8"?>
<!-- Generator: Adobe Illustrator 19.0.0, SVG Export Plug-In . SVG Version: 6.00 Build 0)  -->
<svg version="1.1" id="_x31_" xmlns="http://www.w3.org/2000/svg" xmlns:xlink="http://www.w3.org/1999/xlink" x="0px" y="0px"
	 viewBox="0 0 58 58" style="enable-background:new 0 0 58 58;" xml:space="preserve">
<style type="text/css">
	.st0{fill:#F7931E;}
</style>
<g id="XMLID_32_">
	<path id="XMLID_63_" class="st0" d="M29,33.1c-7.6,0-13.8,5.9-13.8,13.2h4.5c0-4.9,4.2-8.9,9.3-8.9s9.3,4,9.3,8.9h4.5
		C42.8,39,36.6,33.1,29,33.1z"/>
	<path id="XMLID_31_" class="st0" d="M42.8,21.8c-1.9,0-3.7-0.1-5.4-0.4c0,0.2,0,0.4,0,0.6c0,3,2.4,5.4,5.4,5.4s5.4-2.4,5.4-5.4
		c0-0.2,0-0.4,0-0.6C46.5,21.6,44.7,21.8,42.8,21.8z"/>
	<path id="XMLID_30_" class="st0" d="M15.2,21.8c-1.9,0-3.7-0.1-5.4-0.4c0,0.2,0,0.4,0,0.6c0,3,2.4,5.4,5.4,5.4s5.4-2.4,5.4-5.4
		c0-0.2,0-0.4,0-0.6C19,21.6,17.2,21.8,15.2,21.8z"/>
</g>
</svg>
